<?xml version="1.0" standalone="no"?>
<!DOCTYPE svg PUBLIC "-//W3C//DTD SVG 20010904//EN"
 "http://www.w3.org/TR/2001/REC-SVG-20010904/DTD/svg10.dtd">
<svg version="1.0" xmlns="http://www.w3.org/2000/svg"
 width="300.000000pt" height="100.000000pt" viewBox="0 0 300.000000 100.000000"
 preserveAspectRatio="xMidYMid meet">

<g transform="translate(0.000000,100.000000) scale(0.100000,-0.100000)"
fill="#000000" stroke="none">
<path d="M574 989 c-105 -30 -184 -132 -184 -236 0 -84 19 -132 70 -184 166
-166 460 -55 460 174 0 64 -21 116 -67 167 -68 76 -180 108 -279 79z m157
-142 c69 -46 73 -147 8 -201 -25 -21 -41 -26 -84 -26 -46 0 -59 5 -89 31 -60
52 -61 126 -1 186 28 28 40 33 83 33 35 0 59 -7 83 -23z"/>
<path d="M10 982 c0 -4 31 -66 70 -137 l70 -130 0 -107 0 -108 65 0 65 0 0
101 0 101 75 138 c41 76 75 141 75 145 0 3 -33 5 -72 3 l-73 -3 -30 -62 c-16
-35 -32 -63 -35 -63 -3 0 -20 29 -38 65 l-32 65 -70 0 c-38 0 -70 -4 -70 -8z"/>
<path d="M970 810 c0 -162 2 -185 20 -220 26 -50 86 -91 145 -98 25 -2 45 -8
45 -11 0 -4 31 -65 70 -136 l70 -130 0 -107 0 -108 65 0 65 0 0 101 0 101 75
138 c41 76 75 141 75 145 0 3 -33 5 -72 3 l-73 -3 -30 -62 c-16 -35 -32 -63
-35 -63 -3 0 -20 29 -38 65 l-32 65 -47 0 -48 0 43 21 c26 13 55 39 70 62 27
40 27 44 30 229 l3 188 -65 0 -66 0 0 -164 c0 -141 -2 -167 -17 -184 -27 -32
-64 -37 -96 -12 l-27 21 0 170 0 169 -65 0 -65 0 0 -180z"/>
<path d="M1440 746 l0 -246 65 0 65 0 0 102 0 103 63 -103 c62 -101 62 -102
102 -103 l40 -1 -31 -9 c-18 -5 -53 -24 -80 -41 -118 -80 -141 -258 -47 -367
52 -61 103 -81 206 -81 103 0 140 13 195 68 64 64 87 163 60 256 -19 64 -99
140 -172 162 -57 18 -60 21 -122 113 l-62 94 27 23 c38 32 55 75 49 128 -12
103 -72 139 -240 144 l-118 4 0 -246z m212 107 c38 -34 15 -73 -44 -73 l-38 0
0 45 c0 44 1 45 32 45 17 0 40 -7 50 -17z m249 -506 c69 -46 73 -147 8 -201
-25 -21 -41 -26 -84 -26 -46 0 -59 5 -89 31 -60 52 -61 126 -1 186 28 28 40
33 83 33 35 0 59 -7 83 -23z"/>
<path d="M2140 310 c0 -206 9 -238 77 -285 33 -22 48 -25 123 -25 74 0 90 3
122 25 67 45 78 86 78 288 l0 177 -65 0 -65 0 0 -164 c0 -141 -2 -167 -17
-184 -27 -32 -64 -37 -96 -12 l-27 21 0 170 0 169 -65 0 -65 0 0 -180z"/>
<path d="M2610 246 l0 -246 65 0 65 0 0 102 0 103 63 -103 62 -102 68 0 c53 0
67 3 67 15 0 9 -24 52 -54 97 l-54 81 27 23 c38 32 55 75 49 128 -12 103 -72
139 -240 144 l-118 4 0 -246z m212 107 c38 -34 15 -73 -44 -73 l-38 0 0 45 c0
44 1 45 32 45 17 0 40 -7 50 -17z"/>
</g>
</svg>
